<svg width="383" height="401" viewBox="0 0 383 401" fill="none" xmlns="http://www.w3.org/2000/svg">
<rect width="383" height="401" rx="23" fill="#121221"/>
<path d="M120.668 271.048C163.114 311.906 227.973 308.943 266.125 264.606C271.231 258.672 276.127 257.725 282.586 261.602C289.657 265.846 296.961 269.682 304.072 273.858C313.429 279.353 314.252 283.796 307.466 292.628C285.858 320.752 257.881 338.67 224.002 346.92C141.332 367.051 58.145 310.538 43.9832 224.69C29.6889 138.038 94.4549 55.951 180.572 51.2676C229.928 48.5835 270.894 66.0844 303.666 103.926C306.017 106.641 308.296 109.495 310.148 112.575C313.184 117.624 312.602 122.67 307.55 125.721C298.144 131.4 288.471 136.638 278.733 141.702C273.18 144.59 269.608 140.836 266.184 136.836C245.664 112.859 219.553 100.332 188.71 101.55C146.892 103.202 115.131 123.242 99.1733 163.666C83.5511 203.241 91.4872 239.48 120.668 271.048Z" fill="white"/>
<path d="M179.148 240.587C161.672 236.038 149.985 225.947 146.77 207.916C143.851 191.54 149.267 177.799 162.387 167.932C179.587 154.997 203.047 158.178 216.808 175.32C219.944 179.227 223.141 180.768 227.933 180.734C262.32 180.494 296.709 180.607 331.093 180.245C337.161 180.182 339.812 181.871 340.609 188.374C344.297 218.444 342.326 220.984 313.676 220.948C285.269 220.912 256.862 220.941 228.455 220.879C224.252 220.87 220.57 221.193 217.518 225.045C207.809 237.298 195.176 242.59 179.148 240.587Z" fill="#5B21B6"/>
</svg>
