<svg width="802" height="211" viewBox="0 0 802 211" fill="none" xmlns="http://www.w3.org/2000/svg">
<path d="M72.9561 147.21C98.8307 171.49 138.369 169.73 161.627 143.382C164.739 139.856 167.724 139.293 171.661 141.597C175.972 144.119 180.424 146.399 184.759 148.88C190.463 152.146 190.964 154.786 186.828 160.034C173.656 176.747 156.601 187.395 135.948 192.297C85.5524 204.26 34.842 170.677 26.209 119.662C17.4952 68.1692 56.9765 19.3891 109.473 16.6061C139.561 15.011 164.534 25.4109 184.511 47.8983C185.945 49.5116 187.334 51.2075 188.463 53.0381C190.313 56.0381 189.959 59.0369 186.879 60.8497C181.145 64.2245 175.249 67.3371 169.312 70.3468C165.927 72.063 163.75 69.8321 161.662 67.4548C149.153 53.2065 133.236 45.7626 114.434 46.4865C88.9423 47.4681 69.5805 59.3766 59.8528 83.3989C50.3295 106.916 55.1673 128.451 72.9561 147.21Z" fill="white"/>
<path d="M108.759 128.993C98.1113 126.306 90.9914 120.344 89.0328 109.691C87.2541 100.017 90.5537 91.8983 98.5473 86.0688C109.026 78.4268 123.319 80.3062 131.703 90.4336C133.614 92.7418 135.561 93.6523 138.481 93.6325C159.431 93.4908 180.382 93.5573 201.331 93.3437C205.028 93.306 206.643 94.3041 207.129 98.1462C209.375 115.911 208.175 117.412 190.72 117.391C173.413 117.37 156.106 117.387 138.799 117.35C136.239 117.345 133.995 117.536 132.135 119.812C126.22 127.05 118.524 130.177 108.759 128.993Z" fill="#5B21B6"/>
<path d="M585.996 162.064C591.099 155.302 597.724 153.441 605.276 155.226C612.472 156.927 616.538 161.863 617.801 169.155C618.67 174.178 617.991 175.156 612.961 175.2C605.703 175.264 598.444 175.217 591.122 175.217C592.003 183.007 599.585 186.438 607.189 183.132C608.244 182.674 609.278 182.06 610.153 181.319C612.248 179.544 613.911 180.441 615.255 182.166C616.728 184.057 615.05 185.207 613.862 186.3C608.642 191.105 598.183 191.762 591.363 187.76C585.009 184.032 581.602 176.24 583.326 168.875C583.849 166.641 584.954 164.543 585.996 162.064ZM603.893 161.379C595.529 160.388 591.872 162.534 591.062 168.909C596.031 170.288 606.968 170.055 610.392 168.468C610.061 164.865 607.697 162.953 603.893 161.379Z" fill="#5B21B6"/>
<path d="M371.057 164.433C375.452 176.228 370.987 186.367 360.323 189.565C349.181 192.906 338.846 186.918 336.347 175.673C334.701 168.27 338.729 160.152 345.828 156.561C353.335 152.765 362.763 154.369 368.274 160.453C369.268 161.551 370.014 162.873 371.057 164.433ZM344.672 178.746C348.481 183.91 354.698 185.595 359.967 182.892C364.701 180.463 367.092 174.029 365.258 168.653C363.281 162.86 358.191 160.094 351.71 161.292C344.767 162.577 341.808 169.321 344.672 178.746Z" fill="#5B21B6"/>
<path d="M419.843 181.908C419.846 174.428 419.797 167.433 419.885 160.44C419.911 158.422 419.122 155.84 422.143 155.079C424.593 154.463 426.328 155.46 427.061 158.23C431.022 155.903 434.74 154.404 439.113 154.615C447.567 155.023 452.898 159.792 453.31 168.251C453.586 173.9 453.349 179.573 453.403 185.235C453.428 187.873 452.871 189.909 449.642 189.851C446.665 189.799 446.169 187.802 446.155 185.432C446.126 180.437 446.197 175.438 446.065 170.445C445.901 164.243 443.434 161.514 437.975 161.202C431.601 160.838 428.252 163.499 427.152 169.608C426.288 174.409 426.739 179.243 426.545 184.06C426.443 186.571 427.39 189.885 423.108 189.816C418.753 189.746 420.176 186.286 419.856 183.89C419.791 183.399 419.844 182.892 419.843 181.908Z" fill="#5B21B6"/>
<path d="M535.055 162.589C537.588 170.81 536.045 178.846 536.307 186.795C536.384 189.133 534.696 189.913 532.625 189.905C530.406 189.898 529.199 188.669 529.162 186.497C529.082 181.667 529.111 176.835 529.083 172.004C529.037 164.142 526.796 161.299 520.554 161.163C513.791 161.016 509.908 164.702 509.561 171.946C509.346 176.435 509.494 180.942 509.512 185.44C509.521 187.766 509.337 189.895 506.23 189.915C502.802 189.937 502.775 187.576 502.781 185.1C502.802 176.769 502.733 168.437 502.81 160.107C502.827 158.251 502.076 155.797 504.781 155.061C507.272 154.384 509.404 155 509.983 157.901C522.386 152.492 529.802 153.862 535.055 162.589Z" fill="#5B21B6"/>
<path d="M260.679 164.866C265.74 153.142 281.815 152.053 288.945 158.491C290.427 159.829 292.951 161.284 290.95 163.768C289.088 166.079 287.098 165.893 284.637 163.757C280.155 159.866 272.848 160.314 269.157 164.174C265.34 168.163 265.422 176.568 269.317 180.704C273.169 184.794 280.126 185.359 284.695 181.442C287.14 179.345 289.222 179.022 291.008 181.428C292.831 183.882 290.324 185.363 288.771 186.664C282.851 191.624 273.096 191.707 266.422 186.997C259.677 182.238 257.516 174.275 260.679 164.866Z" fill="#5B21B6"/>
<path d="M666.841 184.222C661.636 177.156 661.308 169.854 665.442 162.847C669.493 155.981 676.274 153.925 683.997 154.778C687.411 155.156 690.467 156.469 692.87 158.918C694.151 160.224 696.454 161.713 694.359 163.858C692.633 165.624 690.642 166.228 688.329 163.968C684.544 160.268 679.793 160.138 675.37 162.405C670.835 164.73 669.846 169.205 670.25 173.98C670.594 178.034 672.07 181.564 676.137 183.085C680.215 184.611 684.452 184.699 687.884 181.587C690.141 179.541 692.236 178.847 694.259 181.246C696.619 184.044 693.622 185.462 692.064 186.777C685.417 192.389 674.558 191.316 666.841 184.222Z" fill="#5B21B6"/>
<path d="M760.217 189.683C748.831 191.527 744.024 187.536 743.978 176.663C743.966 173.669 743.972 170.675 743.971 167.681C743.969 164.567 744.67 161.122 739.834 160.782C738.587 160.695 738.13 159.344 738.114 158.07C738.096 156.614 738.514 155.178 740.071 155.04C742.974 154.781 744.135 153.405 744.075 150.54C744.024 148.108 745.428 146.929 747.89 147.027C750.128 147.116 751.361 148.324 751.262 150.483C751.092 154.189 753.114 154.915 756.267 154.828C758.456 154.768 761.325 154.221 761.39 157.849C761.46 161.808 758.377 161.245 756.03 161.157C752.6 161.028 751.186 162.341 751.363 165.816C751.55 169.465 751.354 173.133 751.381 176.792C751.429 183.132 752.3 184.005 758.653 183.743C760.44 183.669 761.913 183.542 762.571 185.715C763.189 187.756 762.512 188.908 760.217 189.683Z" fill="#5B21B6"/>
<path d="M415.168 46.0001C415.358 46.0006 415.549 46.0009 415.744 46.0012C425.464 46.0352 435.872 48.8284 442.968 55.8719C443.239 56.1618 443.509 56.453 443.776 56.7461C444.003 56.9666 444.23 57.1874 444.464 57.4144C446.482 59.4765 448.069 61.6862 449.553 64.15C449.65 64.3094 449.747 64.469 449.847 64.6332C451.62 67.5948 452.737 70.7121 453.679 74.0219C453.751 74.2607 453.822 74.4999 453.896 74.7461C455.691 80.9755 455.054 86.8898 455.054 93.4914C434.448 93.4914 413.843 93.4914 392.612 93.4914C393.979 100.305 395.843 106.425 401.69 110.767C407.582 114.669 414.41 115.7 421.358 114.589C426.259 113.495 430.845 110.957 433.598 106.654C434.3 105.403 434.922 104.116 435.524 102.815C435.876 102.894 436.228 102.973 436.591 103.055C437.968 103.36 439.35 103.639 440.733 103.912C441.194 104.003 441.655 104.094 442.116 104.186C442.803 104.322 443.489 104.458 444.176 104.592C445.929 104.936 447.673 105.317 449.415 105.711C449.823 105.802 449.823 105.802 450.238 105.895C450.497 105.953 450.756 106.012 451.023 106.072C451.256 106.125 451.489 106.177 451.729 106.231C452.304 106.38 452.304 106.38 452.854 106.654C452.68 107.918 452.172 108.973 451.599 110.099C451.5 110.292 451.401 110.486 451.3 110.686C449.656 113.855 447.62 116.443 445.152 118.994C444.934 119.231 444.716 119.469 444.492 119.713C441.514 122.869 437.776 124.867 433.874 126.672C433.683 126.764 433.493 126.857 433.298 126.952C431.701 127.705 430.114 128.126 428.389 128.488C428.008 128.572 428.008 128.572 427.618 128.658C425.948 129.022 424.275 129.371 422.595 129.688C422.338 129.738 422.081 129.787 421.815 129.839C420.844 129.977 419.914 129.998 418.933 129.999C418.744 129.999 418.553 129.999 418.358 130C417.956 130 417.555 129.999 417.154 129.998C416.553 129.997 415.953 129.998 415.352 130C411.927 130.002 408.536 129.937 405.197 129.105C404.83 129.016 404.83 129.016 404.456 128.924C394.539 126.386 385.602 120.177 380.293 111.358C379.19 109.41 378.327 107.352 377.483 105.283C377.392 105.065 377.301 104.847 377.207 104.622C372.864 94.0878 373.383 80.8008 377.414 70.2171C377.701 69.5571 377.995 68.9102 378.308 68.2633C378.408 68.0576 378.507 67.852 378.609 67.6403C380.489 63.8078 382.599 60.515 385.735 57.5688C385.951 57.3481 386.166 57.1276 386.389 56.9003C394.16 49.3373 404.419 45.9801 415.168 46.0001Z" fill="white"/>
<path d="M752.981 53.1446C755.712 55.4867 757.766 57.9047 759.504 61.0291C759.649 61.2601 759.794 61.4914 759.942 61.7294C763.364 67.4649 763.172 75.1551 763.158 81.5758C763.158 82.0853 763.158 82.5951 763.158 83.1046C763.158 84.4738 763.158 85.8431 763.155 87.2125C763.155 88.6487 763.152 90.0849 763.152 91.5214C763.152 94.2346 763.15 96.9482 763.147 99.6615C763.144 102.753 763.144 105.845 763.141 108.937C763.138 115.291 763.133 121.646 763.127 128C756.966 128 750.804 128 744.456 128C744.451 125.753 744.451 125.753 744.445 123.461C744.431 118.501 744.412 113.541 744.389 108.581C744.378 105.575 744.367 102.57 744.359 99.5636C744.353 96.9416 744.345 94.3197 744.331 91.6977C744.325 90.3112 744.32 88.9248 744.317 87.5384C744.317 86.2293 744.311 84.9205 744.303 83.6117C744.3 83.135 744.297 82.6583 744.297 82.1818C744.3 79.7788 744.2 77.4389 743.812 75.0629C743.782 74.8672 743.751 74.6718 743.718 74.4703C743.054 70.8112 740.931 67.5007 738.047 65.1294C736.029 63.8044 733.716 62.9338 731.358 62.3959C731.158 62.3459 730.954 62.2958 730.748 62.2442C725.077 61.3623 719.579 62.5585 714.869 65.7231C710.118 69.3532 707.59 74.6551 706.835 80.437C706.557 83.8189 706.632 87.2333 706.637 90.6234C706.637 91.941 706.632 93.2588 706.626 94.5763C706.615 97.0625 706.612 99.5483 706.609 102.034C706.609 104.868 706.601 107.702 706.59 110.536C706.57 116.357 706.562 122.179 706.557 128C700.487 128 694.417 128 688.164 128C688.164 101.66 688.164 75.3199 688.164 48.1816C693.958 48.1816 699.751 48.1816 705.72 48.1816C705.812 52.1507 705.904 56.1197 705.999 60.2091C706.551 59.307 707.103 58.405 707.671 57.4756C711.606 52.2133 717.049 48.5441 723.556 47.0882C723.907 47.0016 723.907 47.0016 724.266 46.913C734.148 44.5691 745.186 46.7706 752.981 53.1446Z" fill="white"/>
<path d="M643.096 47.857C643.532 47.982 643.971 48.1071 644.407 48.2321C645.546 48.5588 646.682 48.8907 647.818 49.2251C647.818 50.4945 647.404 51.1922 646.776 52.252C646.665 52.4419 646.557 52.6318 646.443 52.8274C645.151 55.0208 643.763 57.1527 642.377 59.2883C641.488 60.6663 640.627 62.0604 639.763 63.4537C638.527 63.295 637.341 63.0824 636.136 62.7697C629.734 61.112 622.935 61.7797 617.205 65.0649C615.91 65.8614 614.777 66.8147 613.655 67.8318C613.464 67.9929 613.272 68.1541 613.072 68.3202C609.359 71.63 606.742 77.1937 606.156 82.0604C606.126 82.2684 606.095 82.4766 606.064 82.6908C605.453 87.7858 605.914 92.7223 607.267 97.6572C607.314 97.8684 607.362 98.0796 607.409 98.2975C608.736 103.684 612.639 108.182 617.344 111.022C623.212 114.421 630.384 115.102 636.988 113.417C639.888 112.562 642.588 111.158 645.04 109.423C645.298 109.245 645.298 109.245 645.562 109.063C650.142 105.563 652.498 99.7682 653.65 94.3736C653.7 94.1679 653.75 93.9618 653.8 93.75C653.961 92.809 653.978 91.882 653.983 90.9309C653.986 90.7306 653.986 90.5303 653.989 90.324C653.992 89.8996 653.995 89.4752 653.995 89.051C653.997 88.4176 654.006 87.7841 654.014 87.1507C654.042 83.608 653.758 80.1059 652.17 76.8656C651.931 76.1569 651.942 75.9008 652.261 75.2197C652.747 74.7256 653.228 74.2815 653.756 73.8343C654.058 73.5681 654.364 73.3013 654.667 73.0337C654.822 72.8977 654.978 72.7617 655.136 72.6216C655.847 71.9827 656.516 71.3112 657.191 70.6365C658.166 69.6659 659.155 68.7419 660.21 67.8594C660.788 67.3562 661.349 66.8413 661.905 66.3162C662.091 66.1413 662.28 65.9665 662.471 65.7861C662.846 65.4318 663.221 65.0761 663.596 64.7182C663.771 64.5554 663.943 64.3923 664.124 64.2243C664.279 64.076 664.435 63.9277 664.596 63.775C665.038 63.4537 665.038 63.4537 665.871 63.4537C669.309 67.519 671.045 73.7183 671.981 78.7769C672.084 79.2106 672.187 79.644 672.295 80.0766C674.184 88.4099 672.923 98.697 669.204 106.413C669.129 106.576 669.054 106.738 668.976 106.905C666.885 111.388 664.143 115.249 660.594 118.726C660.369 118.948 660.144 119.169 659.913 119.398C650.887 127.819 638.585 130.235 626.565 129.982C615.677 129.563 605.478 125.003 597.866 117.391C590.441 109.368 587.159 99.12 587.167 88.405C587.164 88.1801 587.164 87.9552 587.164 87.7234C587.164 83.7402 587.347 79.7247 588.45 75.8696C588.511 75.654 588.569 75.4384 588.633 75.2162C591.422 65.512 597.785 56.9201 606.703 51.8757C617.649 45.8737 631.064 44.3515 643.096 47.857Z" fill="white"/>
<path d="M506.477 49.636C514.34 49.5289 522.203 49.439 530.066 49.388C530.994 49.3818 531.925 49.3756 532.855 49.3691C533.131 49.3672 533.131 49.3672 533.416 49.3653C536.406 49.3443 539.396 49.306 542.39 49.2612C545.46 49.2156 548.533 49.1891 551.604 49.1789C553.329 49.1726 555.052 49.1578 556.778 49.1225C558.402 49.0893 560.025 49.0793 561.652 49.0866C562.245 49.0852 562.842 49.0755 563.435 49.0569C567.815 48.9263 567.815 48.9263 569.14 50.1188C570.098 51.2937 570.769 52.5756 571.385 53.9446C571.689 54.5968 572.064 55.1746 572.487 55.7583C572.608 55.9345 572.732 56.1104 572.857 56.2918C573.003 56.4999 573.149 56.7079 573.298 56.9222C573.773 57.6011 574.243 58.2817 574.712 58.9628C574.831 59.1285 574.947 59.2942 575.066 59.4648C575.877 60.643 576.535 61.8476 577.164 63.1289C576.96 63.3251 576.96 63.3251 576.75 63.5254C576.468 63.7966 576.468 63.7966 576.181 64.0734C575.999 64.2488 575.814 64.424 575.626 64.6048C575.09 65.1494 574.588 65.7012 574.085 66.2744C572.658 67.8806 571.089 69.3489 569.538 70.841C568.527 71.8208 567.525 72.7939 566.602 73.8558C564.918 75.7753 563.016 77.5094 561.18 79.2862C558.692 81.6844 558.692 81.6844 556.353 84.2178C555.232 85.4638 553.984 86.6012 552.774 87.7641C551.819 88.6886 550.883 89.6129 550.01 90.6124C548.572 92.2467 546.97 93.732 545.402 95.2445C543.941 96.6543 542.508 98.0665 541.172 99.593C540.159 100.718 539.04 101.748 537.944 102.798C537.06 103.651 536.205 104.508 535.398 105.431C534.048 106.963 532.557 108.362 531.085 109.781C530.511 110.336 529.937 110.892 529.362 111.448C529.111 111.692 528.86 111.935 528.597 112.186C528.007 112.732 528.007 112.732 527.739 113.323C543.958 113.323 560.177 113.323 576.888 113.323C576.888 118.31 576.888 123.297 576.888 128.435C568.668 128.53 560.451 128.61 552.23 128.655C551.259 128.661 550.287 128.666 549.317 128.672C549.028 128.674 549.028 128.674 548.729 128.675C545.604 128.694 542.475 128.728 539.35 128.768C536.138 128.808 532.927 128.832 529.716 128.841C527.913 128.847 526.112 128.86 524.309 128.891C522.611 128.92 520.916 128.93 519.218 128.923C518.594 128.924 517.972 128.933 517.351 128.949C512.77 129.065 512.77 129.065 511.485 128.013C510.602 126.991 510.02 125.867 509.484 124.643C509.126 123.875 508.647 123.204 508.151 122.515C507.228 121.174 506.323 119.823 505.425 118.467C505.295 118.272 505.166 118.077 505.033 117.876C504.791 117.51 504.551 117.144 504.312 116.776C504.037 116.359 503.747 115.952 503.454 115.548C503.358 115.348 503.263 115.148 503.164 114.942C503.496 114.078 503.998 113.525 504.669 112.888C504.857 112.707 505.046 112.525 505.241 112.338C505.438 112.151 505.636 111.964 505.839 111.771C506.957 110.705 508.062 109.645 509.08 108.486C510.422 106.961 511.907 105.575 513.373 104.165C514.355 103.215 515.323 102.267 516.219 101.238C517.807 99.4319 519.588 97.7971 521.319 96.1251C522.876 94.619 524.417 93.1243 525.839 91.4924C527.239 89.9618 528.777 88.5472 530.273 87.1045C531.803 85.626 533.316 84.1515 534.713 82.5498C535.959 81.1746 537.339 79.9139 538.679 78.6248C538.913 78.3978 539.145 78.1711 539.388 77.9374C539.595 77.7364 539.805 77.5353 540.02 77.3281C540.578 76.7633 541.103 76.1909 541.628 75.5975C542.66 74.4336 543.759 73.3471 544.883 72.2639C545.087 72.0648 545.292 71.8653 545.504 71.66C546.15 71.0307 546.799 70.4024 547.448 69.7742C548.307 68.9409 549.166 68.1065 550.024 67.2715C550.223 67.0805 550.419 66.8894 550.623 66.6924C550.806 66.5157 550.988 66.3392 551.176 66.157C551.336 66.0018 551.496 65.8464 551.662 65.6864C552.065 65.2948 552.065 65.2948 552.313 64.7481C537.187 64.7481 522.062 64.7481 506.477 64.7481C506.477 59.7611 506.477 54.7741 506.477 49.636Z" fill="white"/>
<path d="M293.632 16.0244C297.688 15.9128 301.904 16.1687 305.854 17.1214C306.132 17.3912 306.132 17.3912 306.165 17.9767C306.164 18.2349 306.164 18.4931 306.163 18.7591C306.163 19.0507 306.163 19.3424 306.163 19.6429C306.162 19.9601 306.16 20.2774 306.159 20.6043C306.158 21.0887 306.158 21.0887 306.158 21.583C306.156 22.6193 306.153 23.6557 306.149 24.692C306.148 25.3926 306.146 26.0932 306.145 26.7939C306.142 28.5156 306.138 30.2374 306.132 31.9591C305.839 31.9212 305.546 31.8832 305.244 31.8441C302.574 31.5106 299.953 31.3282 297.257 31.3353C296.917 31.3309 296.577 31.3266 296.227 31.3221C292.849 31.3204 290.167 32.0188 287.513 34.1174C283.522 38.3289 284.109 43.7717 283.901 49.225C291.145 49.225 298.39 49.225 305.854 49.225C305.854 54.1214 305.854 59.0179 305.854 64.0627C298.609 64.0627 291.365 64.0627 283.901 64.0627C283.901 85.162 283.901 106.261 283.901 128C277.94 128 271.979 128 265.838 128C265.306 127.484 265.526 126.716 265.524 126.029C265.526 125.659 265.526 125.659 265.527 125.281C265.527 125.02 265.526 124.76 265.526 124.492C265.526 123.613 265.527 122.734 265.529 121.855C265.529 121.228 265.529 120.601 265.529 119.973C265.529 118.264 265.53 116.555 265.532 114.846C265.534 113.243 265.534 111.64 265.534 110.037C265.535 106.861 265.537 103.684 265.539 100.508C265.542 97.4218 265.544 94.3358 265.545 91.2496C265.545 91.0594 265.545 90.8694 265.545 90.6736C265.546 89.7199 265.546 88.7663 265.546 87.8126C265.549 79.896 265.554 71.9794 265.56 64.0627C260.15 64.0627 254.739 64.0627 249.165 64.0627C249.165 59.1663 249.165 54.2698 249.165 49.225C254.667 49.225 260.169 49.225 265.838 49.225C265.795 45.638 265.795 45.638 265.738 42.0513C265.684 36.9434 266.517 32.6153 269.173 28.1823C269.334 27.9075 269.495 27.6328 269.661 27.3498C272.797 22.2943 277.85 18.7767 283.725 17.2784C287.038 16.5674 290.231 16.133 293.632 16.0244Z" fill="white"/>
<path d="M471.164 17C477.093 17 483.022 17 489.13 17C489.136 31.1015 489.141 45.203 489.144 59.3046C489.144 60.9674 489.144 62.6305 489.145 64.2934C489.145 64.6245 489.145 64.9556 489.145 65.2967C489.146 70.6649 489.148 76.0333 489.151 81.4015C489.153 86.9056 489.155 92.4095 489.155 97.9133C489.155 101.313 489.157 104.712 489.159 108.111C489.16 110.438 489.161 112.766 489.161 115.094C489.16 116.438 489.161 117.783 489.162 119.128C489.163 120.358 489.163 121.587 489.162 122.816C489.162 123.263 489.163 123.71 489.163 124.156C489.165 124.76 489.164 125.363 489.163 125.966C489.163 126.302 489.163 126.638 489.163 126.985C489.13 127.729 489.13 127.729 488.862 128C483.022 128 477.181 128 471.164 128C471.164 91.37 471.164 54.7401 471.164 17Z" fill="white"/>
<path d="M360.551 48.0226C360.75 48.0215 360.949 48.0207 361.154 48.0199C361.572 48.0186 361.99 48.0178 362.408 48.0178C363.049 48.0172 363.69 48.0124 364.331 48.0073C364.738 48.0065 365.145 48.0059 365.552 48.0056C365.839 48.003 365.839 48.003 366.133 48C367.483 48.0062 367.483 48.0062 368.1 48.6058C368.167 49.2934 368.167 49.2934 368.163 50.173C368.163 50.6659 368.163 50.6659 368.163 51.1686C368.16 51.5283 368.157 51.8879 368.154 52.2479C368.153 52.6151 368.152 52.982 368.152 53.3492C368.149 54.316 368.144 55.2828 368.138 56.2493C368.132 57.2358 368.13 58.222 368.127 59.2084C368.121 61.1439 368.111 63.0794 368.1 65.0152C367.677 65.0109 367.677 65.0109 367.247 65.0066C366.182 64.9966 365.118 64.9907 364.054 64.9856C363.597 64.9829 363.14 64.9791 362.683 64.9746C356.509 64.9124 350.14 65.6718 345.405 69.9205C340.783 74.3556 338.986 80.699 338.912 86.8757C338.91 87.4605 338.911 88.0451 338.912 88.6299C338.91 89.0595 338.908 89.4891 338.905 89.9187C338.899 91.069 338.897 92.219 338.897 93.3692C338.895 94.5776 338.889 95.786 338.882 96.9941C338.872 99.2755 338.865 101.557 338.86 103.838C338.851 107.935 338.835 112.033 338.817 116.13C338.812 117.567 338.807 119.004 338.804 120.442C338.802 121.331 338.8 122.22 338.796 123.11C338.795 123.524 338.794 123.937 338.794 124.351C338.794 124.913 338.791 125.475 338.789 126.038C338.788 126.353 338.788 126.668 338.787 126.993C338.751 127.694 338.751 127.694 338.474 127.963C337.915 127.989 337.355 127.997 336.795 127.997C336.435 127.998 336.076 127.999 335.706 128C335.31 127.999 334.915 127.999 334.52 127.998C334.117 127.998 333.715 127.999 333.312 127.999C332.468 127.999 331.624 127.999 330.779 127.998C329.694 127.996 328.609 127.997 327.525 127.999C326.693 127.999 325.862 127.999 325.031 127.999C324.631 127.998 324.231 127.999 323.83 127.999C323.272 128 322.714 127.999 322.156 127.997C321.678 127.997 321.678 127.997 321.191 127.997C320.477 127.963 320.477 127.963 320.2 127.694C320.173 127.276 320.165 126.857 320.166 126.438C320.165 126.165 320.165 125.892 320.164 125.61C320.165 125.306 320.166 125.002 320.167 124.689C320.166 124.37 320.166 124.05 320.166 123.72C320.165 122.828 320.166 121.936 320.168 121.044C320.169 120.084 320.168 119.124 320.168 118.163C320.168 116.498 320.169 114.833 320.17 113.168C320.173 110.76 320.173 108.353 320.174 105.945C320.175 102.04 320.176 98.1339 320.179 94.2282C320.182 90.433 320.183 86.6382 320.185 82.843C320.185 82.6095 320.185 82.3758 320.185 82.1347C320.185 80.9621 320.186 79.7895 320.186 78.6169C320.189 68.8821 320.194 59.1476 320.2 49.4128C325.956 49.4128 331.712 49.4128 337.643 49.4128C337.764 54.7257 337.764 54.7257 337.8 56.3814C337.857 58.8202 337.932 61.2426 338.197 63.6701C338.334 63.3936 338.472 63.1173 338.613 62.8327C341.772 56.5442 345.688 51.8836 352.595 49.4128C355.2 48.5824 357.801 48.0269 360.551 48.0226Z" fill="white"/>
<path d="M422.977 62.8895C423.258 62.9537 423.539 63.0178 423.829 63.084C428.91 64.3879 433.005 67.7907 435.659 71.7975C436.527 73.1998 437.089 74.6922 437.602 76.2256C437.706 76.5087 437.811 76.7918 437.919 77.0837C438.164 77.987 438.164 77.987 438.164 80C423.314 80 408.464 80 393.164 80C393.46 77.6189 393.843 75.8311 395.045 73.7408C395.145 73.5652 395.246 73.3896 395.349 73.2089C397.474 69.5601 400.362 66.6598 404.414 64.6509C404.687 64.5135 404.959 64.3763 405.24 64.2349C410.562 61.6996 417.224 61.4245 422.977 62.8895Z" fill="#FAFAFA"/>
<path d="M660.477 39C661.633 39.1641 662.484 39.8065 663.42 40.4387C663.794 40.6859 664.166 40.9332 664.54 41.1805C664.833 41.376 664.833 41.376 665.133 41.5756C665.748 41.9832 666.369 42.3857 666.989 42.7862C669.165 44.1927 671.323 45.6173 673.435 47.1161C674.269 47.7095 674.269 47.7095 675.164 48.2083C675.009 49.1795 674.693 49.5457 673.917 50.1548C672.831 51.0391 671.844 51.9827 670.861 52.9731C670.118 53.6813 669.342 54.3414 668.558 55.006C667.546 55.877 666.565 56.7824 665.587 57.6875C665.388 57.8698 665.191 58.052 664.986 58.2397C664.044 59.1083 663.11 59.9839 662.198 60.8825C661.575 61.4941 660.948 62.0772 660.269 62.6302C659.325 63.4246 658.443 64.2687 657.568 65.1354C656.54 66.1543 655.484 67.1201 654.37 68.049C653.525 68.7833 652.743 69.5779 651.948 70.3647C651.214 71.0724 650.443 71.7256 649.659 72.3813C649.085 72.8802 648.548 73.4023 648.007 73.9375C647.304 74.636 646.589 75.2976 645.824 75.9349C644.94 76.6773 644.117 77.4602 643.297 78.2708C642.31 79.2477 641.296 80.1653 640.229 81.0574C639.461 81.7226 638.752 82.4398 638.032 83.1542C637.322 83.8375 636.571 84.4661 635.815 85.1007C635.238 85.6034 634.695 86.1283 634.152 86.6667C632.586 88.2191 630.885 89.6131 629.164 91C629.577 89.9064 630.109 88.9287 630.705 87.9193C630.805 87.7527 630.902 87.5864 631.004 87.415C631.993 85.7431 633.01 84.0881 634.033 82.4344C634.501 81.6747 634.967 80.9139 635.432 80.1528C638.561 75.0506 638.561 75.0506 639.727 73.2095C641.168 70.938 642.543 68.63 643.931 66.3282C646.536 62.0057 649.157 57.6945 651.807 53.3983C653.921 49.9698 656.016 46.5324 658.089 43.0793C658.244 42.8182 658.244 42.8182 658.405 42.552C658.698 42.0596 658.995 41.5672 659.289 41.0746C659.543 40.6499 659.543 40.6499 659.801 40.2166C660.037 39.8168 660.267 39.4125 660.477 39Z" fill="#5B21B6"/>
</svg>
